<svg id="Capa_1" enable-background="new 0 0 511.366 511.366" height="512" viewBox="0 0 511.366 511.366" width="512" xmlns="http://www.w3.org/2000/svg"><g><g><g id="Colors_12_"><g><path d="m400.777 40.164h49.995v463.702h-49.995z" fill="#94b7f7" transform="matrix(-1 0 0 -1 851.548 544.03)"/></g><g><path d="m45.487 35.824h355.29v468.042h-355.29z" fill="#cbdcfb"/></g><g><path d="m377.491 35.824h23.286v468.042h-23.286z" fill="#94b7f7"/></g><g><path d="m281.732 161.212h-34.547v-34.547h-33.707v34.547h-34.547v33.706h34.547v34.548h33.707v-34.548h34.547z" fill="#f05475"/></g><g><path d="m400.777 35.561h65.103v147.915l-46.424 54.863h-18.679z" fill="#f05475"/></g><g><path d="m465.88 188.732c-9.745 9.918-19.49 19.836-29.235 29.754.05-60.975.101-121.951.151-182.926h29.083c.001 51.058.001 102.115.001 153.172z" fill="#f88fa4"/></g></g><g><g><path d="m205.978 236.966h48.707v-34.548h34.547v-48.706h-34.547v-34.548h-48.707v34.548h-34.547v48.706h34.547zm-19.547-49.548v-18.706h34.547v-34.548h18.707v34.548h34.547v18.706h-34.547v34.548h-18.707v-34.548z"/></g><g><path d="m458.627 204.556 14.752-17.038v-154.854h-314.196v-32.664h-71.796v32.664h-49.4v478.702h420.281l.083-151.392-15-.008-.075 136.399h-34.999v-250.526h14.606l20.688-23.894-.299 91.982 15 .049zm-356.24-189.556h41.796v17.664h-41.796zm290.889 481.366h-340.289v-448.702h34.4v89.586h45.687v-36.318h-15v21.318h-15.687v-74.586h290.889zm22.753-265.527h-7.752v-183.175h42.495 7.608v134.262z"/></g><g><path d="m443.271 328.489h15v16.514h-15z"/></g><g><path d="m231.677 316.148h15v15h-15z"/></g><g><path d="m123.285 316.121h93.13v15h-93.13z"/></g><g><path d="m123.285 347.175h177.278v15h-177.278z"/></g><g><path d="m123.285 378.767h177.278v15h-177.278z"/></g><g><path d="m123.285 410.709h177.278v15h-177.278z"/></g></g></g><g><path d="m361.065 93.427h15v14.595h-15z" fill="#fff"/></g><g><path d="m361.065 122.615h15v14.594h-15z" fill="#fff"/></g><g><path d="m361.065 64.239h15v14.594h-15z" fill="#fff"/></g></g></svg>