<svg id="Layer_1" enable-background="new 0 0 256 256" height="512" viewBox="0 0 256 256" width="512" xmlns="http://www.w3.org/2000/svg"><g><path d="m111.157 170.185h-37.98c-28.624 0-51.829-23.204-51.829-51.829v-42.704c0-39.112 31.707-70.818 70.818-70.818 39.112 0 70.818 31.707 70.818 70.818v42.704c.002 28.624-23.203 51.829-51.827 51.829z" fill="#4671c6"/><g><path d="m111.157 172.185h-37.98c-29.681 0-53.828-24.147-53.828-53.829v-42.704c0-40.152 32.666-72.818 72.818-72.818s72.818 32.666 72.818 72.818v42.704c0 29.681-24.147 53.829-53.828 53.829zm-18.99-165.352c-37.946 0-68.818 30.872-68.818 68.818v42.704c0 27.476 22.353 49.829 49.828 49.829h37.98c27.476 0 49.828-22.353 49.828-49.829v-42.703c0-37.947-30.872-68.819-68.818-68.819z" fill="#3762cc"/></g><path d="m174.509 251.167c0-20.313 0-33.813 0-54.184 0-14.798-11.996-26.798-26.798-26.798h-27.006-57.075-26.951c-14.8 0-26.798 11.998-26.798 26.798v39.316 14.868z" fill="#4671c6"/><path d="m174.509 196.983c0-14.8-11.998-26.798-26.798-26.798h-27.006l-3.391 80.982h57.195c0-20.313 0-33.813 0-54.184z" fill="#e0ebfc"/><path d="m63.607 170.185h-26.928c-14.8 0-26.798 11.998-26.798 26.798v39.316 14.868h57.14z" fill="#e0ebfc"/><path d="m92.14 130.833h-.001-28.532v66.987h57.12v-66.987z" fill="#f9cfcf"/><g><path d="m67.021 253.167h-16.526c-.986 0-1.825-.719-1.977-1.693l-4.589-29.533c-.277-1.783.477-3.589 1.875-4.494l3.335-2.155h-2.971c-1.883 0-3.499-1.488-3.844-3.539l-6.901-41.238c-.203-1.219.738-2.33 1.973-2.33h26.21c1.072 0 1.953.845 1.998 1.916l3.414 80.981c.023.545-.177 1.075-.555 1.469-.376.393-.898.616-1.442.616zm-14.813-4h12.727l-3.245-76.981h-21.931c.025.149 6.505 38.974 6.577 39.107h9.584c.887 0 1.667.584 1.918 1.434.251.851-.088 1.765-.833 2.246l-9.029 5.834c-.029.03-.138.236-.093.52z" fill="#3762cc"/></g><g><path d="m133.839 253.167h-16.525c-.545 0-1.066-.223-1.443-.616-.378-.394-.578-.924-.555-1.469l3.414-80.981c.045-1.071.926-1.916 1.998-1.916h26.21c1.236 0 2.176 1.112 1.973 2.33l-6.901 41.237c-.345 2.052-1.961 3.54-3.844 3.54h-2.971l3.334 2.154c1.398.904 2.152 2.709 1.877 4.493l-4.59 29.534c-.152.975-.991 1.694-1.977 1.694zm-14.44-4h12.727l4.326-27.84c.044-.283-.064-.49-.107-.53l-9.016-5.825c-.745-.481-1.084-1.395-.833-2.246.251-.85 1.031-1.434 1.918-1.434h9.585c.023-.044.05-.11.064-.201l6.512-38.906h-21.931z" fill="#3762cc"/></g><g><path d="m174.509 253.167h-164.628c-1.104 0-2-.896-2-2v-54.184c0-15.879 12.919-28.798 28.798-28.798h24.928v-37.351c0-1.104.896-2 2-2h57.121c1.104 0 2 .896 2 2v37.351h24.983c15.879 0 28.798 12.919 28.798 28.798v54.184c0 1.104-.896 2-2 2zm-162.628-4h160.628v-52.184c0-13.674-11.124-24.798-24.798-24.798h-26.983c-1.104 0-2-.896-2-2v-37.351h-53.122v37.351c0 1.104-.896 2-2 2h-26.927c-13.674 0-24.798 11.125-24.798 24.798z" fill="#3762cc"/></g><path d="m148.324 87.271v-5.245c0-30.657-25.078-55.509-56.013-55.509-30.935 0-56.013 24.852-56.013 55.509v5.245c-9.726-.197-17.443 7.551-17.443 16.917 0 10.001 8.731 17.912 18.922 16.834 5.781 24.559 27.995 42.856 54.534 42.856 26.541 0 48.754-18.299 54.534-42.856 10.177 1.076 18.922-6.82 18.922-16.834 0-9.371-7.723-17.115-17.443-16.917z" fill="#f9cfcf"/><path d="m129.352 93.394c-.781-.781-2.047-.781-2.828 0l-2.558 2.558c-.803-.297-1.668-.467-2.574-.467-4.105 0-7.434 3.328-7.434 7.434v7.929c0 4.106 3.328 7.434 7.434 7.434s7.434-3.328 7.434-7.434v-7.929c0-1.73-.596-3.319-1.588-4.582l2.115-2.114c.78-.782.78-2.048-.001-2.829z" fill="#3762cc"/><path d="m63.217 95.485c-.736 0-1.445.111-2.116.31l-2.401-2.401c-.781-.781-2.047-.781-2.828 0s-.781 2.047 0 2.828l1.78 1.78c-1.159 1.311-1.868 3.029-1.868 4.916v7.929c0 4.106 3.328 7.434 7.434 7.434s7.434-3.328 7.434-7.434v-7.929c-.002-4.105-3.33-7.433-7.435-7.433z" fill="#3762cc"/><path d="m146.724 87.271c5.681 0 11.143-.921 16.262-2.601v-9.017c0-39.112-31.707-70.819-70.819-70.819-3.668 0-7.27.28-10.786.819-14.445 2.216-24.977 14.88-24.977 29.494 0 28.787 23.337 52.124 52.124 52.124z" fill="#4671c6"/><g><path d="m92.311 137.439c-2.118 0-3.96-.247-5.632-.756-2.775-.845-5.204-2.261-7.025-4.096-.584-.588-.58-1.538.008-2.121.589-.584 1.538-.58 2.121.008 1.474 1.484 3.469 2.639 5.77 3.339 1.385.421 2.941.626 4.759.626s3.374-.205 4.759-.626c2.302-.7 4.297-1.855 5.771-3.339.583-.588 1.532-.592 2.121-.008.588.583.592 1.533.008 2.121-1.821 1.835-4.251 3.252-7.026 4.096-1.674.509-3.516.756-5.634.756z" fill="#3762cc"/></g><path d="m162.09 90.712c-1.096-1.074-2.309-1.979-3.595-2.747 1.722-.384 3.43-.842 5.115-1.395.82-.27 1.376-1.036 1.376-1.9v-9.018c0-40.152-32.666-72.818-72.818-72.818-3.715 0-7.446.283-11.089.842-15.208 2.332-26.676 15.862-26.676 31.47 0 1.103.043 2.195.109 3.282-12.851 10.955-20.214 26.776-20.214 43.598v3.309c-4.443.369-8.563 2.239-11.767 5.377-3.661 3.587-5.677 8.373-5.677 13.476 0 5.331 2.284 10.443 6.267 14.026 3.591 3.232 8.303 4.969 13.119 4.902 6.72 25.264 29.537 42.762 56.07 42.762s49.351-17.499 56.071-42.762c.094.001.188.002.283.002 4.725 0 9.314-1.735 12.837-4.905 3.981-3.583 6.265-8.694 6.265-14.025.001-5.103-2.015-9.889-5.676-13.476zm-80.405-83.082c3.443-.528 6.97-.796 10.482-.796 37.946 0 68.818 30.872 68.818 68.818v7.547c-4.127 1.225-8.381 1.908-12.681 2.043-.014 0-.027-.003-.041-.003-.512.016-1.024.031-1.54.031h-38.196c-1.974 0-3.016-.094-4.016-.175-24.208-1.931-44.012-21.471-45.935-45.973 0-.002-.001-.003-.001-.005-.104-1.312-.172-2.633-.172-3.971 0-13.651 10.009-25.481 23.282-27.516zm77.142 107.609c-3.185 2.865-7.472 4.246-11.772 3.794-.993-.114-1.926.55-2.157 1.531-5.726 24.325-27.35 41.314-52.587 41.314s-46.861-16.989-52.586-41.314c-.215-.911-1.028-1.542-1.945-1.542-.07 0-.142.003-.212.011-4.294.453-8.587-.928-11.771-3.792-3.141-2.826-4.942-6.855-4.942-11.053 0-4.019 1.59-7.79 4.477-10.619 2.914-2.856 6.823-4.381 10.926-4.299.529.019 1.057-.195 1.44-.571.384-.376.601-.891.601-1.429v-5.245c0-14.717 6.052-28.623 16.723-38.706 4.003 26.314 26.823 45.951 53.507 45.951h38.196c.436 0 .869-.01 1.302-.022 1 .149 6.396-.451 11.265 4.321 2.887 2.829 4.477 6.6 4.477 10.618-.002 4.199-1.803 8.228-4.942 11.052z" fill="#3762cc"/><g><path d="m169.296 253.167h15.096c14.347 0 26.019-11.672 26.019-26.019v-32.805c0-1.71-1.386-3.096-3.096-3.096s-3.096 1.386-3.096 3.096v32.805c0 10.933-8.894 19.827-19.827 19.827h-15.096c-10.933 0-19.827-8.894-19.827-19.827v-34.869c0-1.71-1.386-3.096-3.096-3.096s-3.096 1.386-3.096 3.096v34.869c0 14.346 11.672 26.019 26.019 26.019z" fill="#4671c6"/></g><g><path d="m235.256 115.788h-6.019c-2.137 0-3.869 1.732-3.869 3.869s1.732 3.869 3.869 3.869h6.019c1.422 0 2.579 1.157 2.579 2.579v32.476c0 16.829-13.692 30.521-30.521 30.521s-30.52-13.692-30.52-30.521v-32.476c0-1.422 1.157-2.579 2.579-2.579h6.017c2.137 0 3.869-1.732 3.869-3.869s-1.732-3.869-3.869-3.869h-6.017c-5.689 0-10.317 4.628-10.317 10.317v32.476c0 21.096 17.163 38.259 38.258 38.259 21.096 0 38.259-17.163 38.259-38.259v-32.476c0-5.688-4.628-10.317-10.317-10.317z" fill="#a4c9ff"/></g><path d="m193.505 113.916h-9.62c-1.371 0-2.483 1.111-2.483 2.483v6.517c0 1.371 1.111 2.483 2.483 2.483h9.62c1.371 0 2.483-1.111 2.483-2.483v-6.517c0-1.371-1.112-2.483-2.483-2.483z" fill="#4671c6"/><path d="m230.743 113.916h-9.62c-1.371 0-2.483 1.111-2.483 2.483v6.517c0 1.371 1.111 2.483 2.483 2.483h9.62c1.371 0 2.483-1.111 2.483-2.483v-6.517c-.001-1.371-1.112-2.483-2.483-2.483z" fill="#4671c6"/><path d="m235.256 113.789h-.884c-.815-1.129-2.133-1.872-3.628-1.872h-9.62c-2.472 0-4.482 2.011-4.482 4.482v6.517c0 2.472 2.011 4.482 4.482 4.482h9.62c1.495 0 2.814-.743 3.628-1.872h.884c.319 0 .579.26.579.58v32.476c0 15.727-12.795 28.521-28.521 28.521s-28.52-12.794-28.52-28.521v-32.476c0-.32.26-.58.579-.58h.884c.815 1.129 2.133 1.872 3.628 1.872h9.619c2.472 0 4.482-2.011 4.482-4.482v-6.517c0-2.472-2.011-4.482-4.482-4.482h-9.619c-1.495 0-2.814.743-3.628 1.872h-.884c-6.792 0-12.317 5.525-12.317 12.317v32.476c0 22.199 18.06 40.258 40.258 40.258 22.199 0 40.26-18.06 40.26-40.258v-32.476c-.001-6.792-5.526-12.317-12.318-12.317zm-4.03 9.125s-.001.005-.001.005c-.002.264-.217.479-.482.479h-9.62c-.266 0-.482-.216-.482-.482v-6.517c0-.266.217-.482.482-.482h9.62c.266 0 .482.216.482.482v6.515zm-47.823-6.515v-.001c0-.266.217-.482.482-.482h9.619c.266 0 .482.216.482.482v6.517c0 .266-.217.482-.482.482h-9.619c-.266 0-.482-.216-.482-.482zm60.17 42.182c0 19.993-16.266 36.258-36.26 36.258-19.992 0-36.258-16.266-36.258-36.258v-32.476c0-4.586 3.731-8.317 8.317-8.317l.03 3.737h-.03c-2.525 0-4.579 2.054-4.579 4.58v32.476c0 17.932 14.588 32.521 32.52 32.521 17.933 0 32.521-14.589 32.521-32.521v-32.476c0-2.525-2.054-4.58-4.579-4.58l-.03-3.737h.03c4.586 0 8.317 3.731 8.317 8.317v32.476z" fill="#3762cc"/><circle cx="146.373" cy="188.627" fill="#a4c9ff" r="11.997"/><path d="m146.373 194.145c3.043 0 5.518-2.476 5.518-5.519s-2.475-5.518-5.518-5.518-5.519 2.476-5.519 5.518c0 3.044 2.476 5.519 5.519 5.519z" fill="#e0ebfc"/><g><path d="m146.373 202.624c-7.718 0-13.997-6.279-13.997-13.997s6.279-13.997 13.997-13.997 13.997 6.279 13.997 13.997-6.279 13.997-13.997 13.997zm0-23.995c-5.513 0-9.997 4.485-9.997 9.997s4.484 9.997 9.997 9.997 9.997-4.485 9.997-9.997-4.484-9.997-9.997-9.997z" fill="#3762cc"/></g></g></svg>