<svg id="Capa_1" enable-background="new 0 0 512 512" height="512" viewBox="0 0 512 512" width="512" xmlns="http://www.w3.org/2000/svg"><g><g><g><path d="m161.934 288.325c.536 4.873-.875 9.653-3.997 13.444l-41.712 50.675-72.411-72.411c-4.172-4.183-8.056-8.561-11.641-13.094l1.957.536 49.037-15.494c4.966-1.556 10.353-.896 14.783 1.803l24.003 14.618c.412.237.865.371 1.339.371h16.205c3.987 0 7.922 1.35 11.064 3.801l4.523 3.513c3.873 3.018 6.304 7.365 6.85 12.238z" fill="#fcb5ba"/><path d="m441.958 153.907c2.926 3.863 4.162 8.633 3.482 13.423-.68 4.801-3.204 9.035-7.088 11.93l-11.662 8.674c-.762.577-1.154 1.504-1.01 2.452l7.901 53.116c.845 5.676-1.092 11.466-5.182 15.494l-10.374 10.23c-.855.845-1.01 2.194-.371 3.214l22.406 35.716-176.777 176.79c-4.028 4.018-10.549 4.018-14.567 0l-76.264-76.264 17.637-26.558c3.369-5.048 8.983-8.056 15.03-8.056h37.406c.896 0 1.731-.474 2.194-1.246l27.887-45.998c.577-.958.474-2.184-.278-3.029l-17.688-20.109c-5.305-6.047-6.006-14.68-1.731-21.49l26.568-42.279c3.07-4.883 8.324-8.025 14.072-8.406 5.728-.381 11.363 2.04 15.051 6.459l2.41 2.905c.392.474.927.783 1.515.886l32.09 5.717c.937.165 1.617-.206 1.957-.443.319-.237.896-.762 1.04-1.69l8.726-55.434c.144-.917-.216-1.844-.948-2.411l-28.979-22.633c-.443-.35-1.01-.546-1.576-.546h-36.469c-.824 0-1.607.402-2.102 1.071l-46.409 63.686c-5.45 7.458-15.587 9.601-23.581 4.996l-51.447-29.7c-5.563-3.224-9.014-9.21-9.014-15.618v-17.122c0-.989-.587-1.906-1.483-2.328l-45.246-21.387c-6.284-2.977-10.333-9.375-10.333-16.297v-22.262c0-4.687 1.793-9.127 5.058-12.517l21.716-22.458c4.44-4.605 11.074-6.511 17.297-4.965l15.999 3.966c.268.062.577.082.876.062l34.13-3.327c.917-.093 1.7-.649 2.091-1.494l14.866-31.781c13.667 6.044 26.612 14.227 38.333 24.554 3.938 3.47 9.798 3.496 13.735.025 28.275-24.928 63.702-37.384 99.111-37.384 38.405 0 76.79 14.639 106.088 43.937 2.647 2.648 5.182 5.367 7.592 8.159l-84.32-5.779h-.175c-.453 0-.896.113-1.298.35l-25.538 14.824c-1.092.639-1.566 2.009-1.092 3.183l5.47 13.689c.391.978 1.338 1.619 2.391 1.619h24.106c5.604 0 10.982 2.668 14.371 7.139z" fill="#fcb5ba"/><path d="m418.594 273.944 21.469 34.212-176.78 176.79c-4.018 4.018-10.549 4.018-14.567 0l-20.562-20.562z" fill="#fc9aa1"/><path d="m475.645 76.139-29.566-2.019c-5.213-7.685-11.239-14.989-18.049-21.799-9.745-9.745-20.501-17.874-31.936-24.374 26.373 6.13 51.396 19.47 71.958 40.033 2.648 2.647 5.182 5.367 7.593 8.159z" fill="#fc9aa1"/><path d="m468.185 280.032-33.635 33.635-23.428-37.108c-2.585-4.095-1.969-9.437 1.48-12.837l10.38-10.23c2.343-2.309 3.442-5.599 2.958-8.853l-7.903-53.118c-.559-3.756.994-7.514 4.04-9.781l11.663-8.678c4.594-3.418 5.519-9.926 2.06-14.489l-32.402-42.742c-1.948-2.569-4.986-4.078-8.209-4.078h-24.106c-4.214 0-8.002-2.566-9.566-6.479l-5.471-13.691c-1.897-4.746-.027-10.165 4.393-12.732l25.537-14.827c1.78-1.033 3.829-1.51 5.882-1.368l76.121 5.253c.021.021.052.051.072.072 58.556 58.555 58.597 153.444.134 212.051z" fill="#fb6672"/><path d="m468.185 280.032-33.635 33.635-21.551-34.13 15.164-15.164c54.094-54.239 58.092-139.569 11.981-198.392l27.835 1.926c.021.021.052.051.072.072 58.556 58.557 58.597 153.446.134 212.053z" fill="#fb4a59"/><path d="m363.972 191.117-8.726 55.424c-.896 5.707-6.305 9.55-11.981 8.54l-32.08-5.707c-2.39-.422-4.554-1.679-6.109-3.554l-2.421-2.905c-4.481-5.388-12.908-4.821-16.637 1.113l-26.568 42.268c-2.421 3.863-2.019 8.86.989 12.29l17.688 20.099c2.977 3.379 3.41 8.293 1.082 12.146l-27.877 45.997c-1.865 3.08-5.213 4.965-8.808 4.965h-37.406c-3.461 0-6.676 1.731-8.592 4.605l-18.492 27.866-67.271-67.271 41.206-50.135c3.681-4.478 2.943-11.111-1.631-14.671l-4.519-3.517c-1.809-1.408-4.035-2.172-6.327-2.172h-16.197c-1.889 0-3.743-.52-5.357-1.502l-24.009-14.615c-2.533-1.542-5.609-1.918-8.439-1.03l-47.229 14.809c-25.507-28.433-38.261-64.262-38.261-100.092 0-38.395 14.649-76.79 43.947-106.088 46.987-46.986 117.389-56.289 173.657-27.908l-14.67 31.791c-1.535 3.327-4.708 5.584-8.355 5.944l-34.13 3.327c-1.164.113-2.339.031-3.482-.247l-16.009-3.966c-3.565-.886-7.335.196-9.88 2.833l-21.706 22.448c-1.854 1.926-2.895 4.492-2.895 7.16v22.262c0 3.976 2.297 7.603 5.903 9.313l45.256 21.387c3.606 1.71 5.903 5.336 5.903 9.313v17.122c0 3.678 1.968 7.077 5.151 8.921l51.437 29.7c4.564 2.627 10.374 1.401 13.485-2.854l46.42-63.696c1.947-2.658 5.037-4.234 8.334-4.234h36.468c2.297 0 4.522.773 6.335 2.184l28.969 22.623c2.948 2.297 4.421 6.026 3.834 9.714z" fill="#fb6672"/></g></g><g><g><path d="m82.705 198.723c-2.049 0-4.014-.814-5.463-2.263l-5.696-5.696c-3.018-3.018-3.018-7.909-.001-10.927 3.018-3.017 7.91-3.018 10.927-.001l.233.233.231-.232c3.018-3.017 7.91-3.018 10.927-.001 3.018 3.018 3.018 7.909.001 10.927l-5.695 5.696c-1.449 1.45-3.414 2.264-5.464 2.264z" fill="#fb4a59"/></g></g><g><g><path d="m116.651 216.238c-2.049 0-4.014-.814-5.463-2.263l-5.696-5.696c-3.018-3.018-3.018-7.909-.001-10.927 3.018-3.017 7.91-3.018 10.927-.001l.233.233.231-.232c3.018-3.017 7.91-3.018 10.927-.001 3.018 3.018 3.018 7.909.001 10.927l-5.695 5.696c-1.449 1.45-3.415 2.264-5.464 2.264z" fill="#fc9aa1"/></g></g><g><g><path d="m196.981 329.937c-2.049 0-4.014-.814-5.463-2.263l-5.696-5.696c-3.018-3.018-3.018-7.909-.001-10.927 3.018-3.017 7.91-3.018 10.927-.001l.233.233.231-.232c3.018-3.017 7.91-3.018 10.927-.001 3.018 3.018 3.018 7.909.001 10.927l-5.695 5.696c-1.449 1.45-3.415 2.264-5.464 2.264z" fill="#fb4a59"/></g></g><g><g><path d="m467.979 198.723c-2.049 0-4.015-.814-5.464-2.263l-5.695-5.696c-3.017-3.018-3.017-7.909.001-10.927 3.016-3.017 7.908-3.016 10.927.001l.231.232.233-.233c3.016-3.017 7.908-3.016 10.927.001 3.017 3.018 3.017 7.909-.001 10.927l-5.696 5.696c-1.449 1.449-3.414 2.262-5.463 2.262z" fill="#f82f40"/></g></g><g><g><path d="m228.153 135.75c-2.049 0-4.015-.814-5.464-2.263l-5.695-5.696c-3.017-3.018-3.017-7.909.001-10.927 3.017-3.017 7.909-3.016 10.927.001l.231.232.233-.233c3.017-3.017 7.909-3.016 10.927.001 3.017 3.018 3.017 7.909-.001 10.927l-5.696 5.696c-1.449 1.448-3.414 2.262-5.463 2.262z" fill="#fb6672"/></g></g><g><g><path d="m332.713 324.242c-2.049 0-4.015-.814-5.464-2.263l-5.695-5.696c-3.017-3.018-3.017-7.909.001-10.927 3.017-3.017 7.909-3.016 10.927.001l.231.232.233-.233c3.017-3.017 7.909-3.016 10.927.001 3.017 3.018 3.017 7.909-.001 10.927l-5.696 5.696c-1.449 1.448-3.413 2.262-5.463 2.262z" fill="#fc9aa1"/></g></g><g><g><path d="m235.245 422.535c-2.049 0-4.014-.814-5.463-2.263l-5.696-5.696c-3.018-3.018-3.018-7.909-.001-10.927 3.018-3.017 7.91-3.018 10.927-.001l.233.233.231-.232c3.018-3.017 7.91-3.018 10.927-.001 3.018 3.018 3.018 7.909.001 10.927l-5.695 5.696c-1.449 1.45-3.415 2.264-5.464 2.264z" fill="#fc9aa1"/></g></g></g></svg>