<svg id="Capa_1" enable-background="new 0 0 512 512" height="512" viewBox="0 0 512 512" width="512" xmlns="http://www.w3.org/2000/svg"><g><g><path d="m282.515 386.666c-8.269 3.021-17.195 4.677-26.512 4.677-9.318 0-18.247-1.656-26.518-4.679-6.407 54.145-22.823 86.182-34.445 102.749-4.31 6.144.072 14.588 7.577 14.588h106.763c7.505 0 11.888-8.444 7.577-14.588-11.62-16.568-28.035-48.604-34.442-102.747z" fill="#cf8151"/><path d="m485.465 208.232c0-37.12-26.166-68.115-61.056-75.582.013-.576.044-1.147.044-1.726 0-42.696-34.612-77.308-77.308-77.308-6.757 0-13.31.872-19.557 2.501-11.52-28.221-39.224-48.117-71.588-48.117s-60.068 19.896-71.588 48.117c-6.247-1.629-12.8-2.501-19.557-2.501-42.696 0-77.308 34.612-77.308 77.308 0 .579.031 1.15.044 1.726-34.89 7.467-61.056 38.463-61.056 75.582s26.166 68.115 61.056 75.582c-.013.576-.044 1.147-.044 1.726 0 42.696 34.612 77.308 77.308 77.308 9.665 0 18.909-1.789 27.438-5.029 13.94 20.245 37.268 33.524 63.707 33.524 26.438 0 49.766-13.28 63.706-33.524 8.529 3.24 17.773 5.029 27.438 5.029 42.696 0 77.308-34.612 77.308-77.308 0-.579-.031-1.15-.044-1.726 34.891-7.467 61.057-38.463 61.057-75.582z" fill="#b3e59f"/><path d="m227.023 403.715c8.949 3.624 18.727 5.627 28.977 5.627s20.028-2.003 28.977-5.627c-.927-5.427-1.758-11.097-2.462-17.049-8.269 3.021-17.195 4.677-26.512 4.677-9.318 0-18.247-1.656-26.518-4.679-.704 5.953-1.535 11.623-2.462 17.051z" fill="#bd6e45"/><g><g><g><path d="m347.145 344.847c-8.388 0-16.458-1.347-24.019-3.821-2.033-.665-4.251.026-5.545 1.73-14.118 18.582-36.444 30.586-61.581 30.586s-47.463-12.005-61.581-30.586c-1.294-1.703-3.512-2.395-5.545-1.73-7.561 2.474-15.631 3.821-24.019 3.821-29.446 0-59.325-16.464-75.036-40.688 8.336 33.699 38.761 58.688 75.036 58.688 9.665 0 18.909-1.789 27.438-5.029 13.94 20.245 37.268 33.524 63.707 33.524 26.438 0 49.766-13.28 63.706-33.524 8.529 3.24 17.773 5.029 27.438 5.029 36.275 0 66.7-24.989 75.036-58.688-15.71 24.224-45.589 40.688-75.035 40.688z" fill="#95d6a4"/></g></g></g><g fill="#dc4955"><circle cx="304.471" cy="127.636" r="29.68"/><circle cx="207.529" cy="127.636" r="29.68"/><circle cx="256" cy="269.894" r="29.68"/><circle cx="152.811" cy="269.894" r="29.68"/><circle cx="359.189" cy="269.894" r="29.68"/></g><path d="m304.471 139.316c-13.254 0-24.475-8.689-28.287-20.68-.903 2.839-1.393 5.862-1.393 9 0 16.392 13.288 29.68 29.68 29.68s29.68-13.288 29.68-29.68c0-3.138-.491-6.161-1.393-9-3.812 11.991-15.033 20.68-28.287 20.68z" fill="#d82f3c"/><path d="m207.529 139.316c-13.254 0-24.475-8.689-28.287-20.68-.903 2.839-1.393 5.862-1.393 9 0 16.392 13.288 29.68 29.68 29.68s29.68-13.288 29.68-29.68c0-3.138-.491-6.161-1.393-9-3.812 11.991-15.033 20.68-28.287 20.68z" fill="#d82f3c"/><path d="m256 281.574c-13.254 0-24.475-8.689-28.287-20.68-.903 2.839-1.393 5.862-1.393 9 0 16.392 13.288 29.68 29.68 29.68s29.68-13.288 29.68-29.68c0-3.138-.491-6.161-1.393-9-3.812 11.991-15.033 20.68-28.287 20.68z" fill="#d82f3c"/><path d="m152.811 281.574c-13.254 0-24.475-8.689-28.287-20.68-.903 2.839-1.393 5.862-1.393 9 0 16.392 13.288 29.68 29.68 29.68s29.68-13.288 29.68-29.68c0-3.138-.491-6.161-1.393-9-3.812 11.991-15.033 20.68-28.287 20.68z" fill="#d82f3c"/><path d="m359.189 281.574c-13.254 0-24.475-8.689-28.287-20.68-.903 2.839-1.393 5.862-1.393 9 0 16.392 13.288 29.68 29.68 29.68s29.68-13.288 29.68-29.68c0-3.138-.491-6.161-1.393-9-3.812 11.991-15.033 20.68-28.287 20.68z" fill="#d82f3c"/></g><g><path d="m474.251 154.373c-10.899-13.318-25.665-23.051-42.053-27.827-2.165-44.941-39.407-80.84-84.875-80.84-5.128 0-10.238.461-15.261 1.373-14.312-28.798-43.515-47.079-76.062-47.079s-61.75 18.281-76.062 47.078c-5.022-.912-10.133-1.373-15.261-1.373-13.302 0-26.042 2.989-37.866 8.885-3.714 1.851-5.224 6.364-3.372 10.078 1.852 3.713 6.364 5.225 10.078 3.372 9.723-4.847 20.207-7.305 31.16-7.305 5.986 0 11.941.761 17.699 2.263 3.647.946 7.431-.945 8.854-4.433 10.796-26.447 36.22-43.536 64.77-43.536 28.551 0 53.975 17.089 64.771 43.536 1.424 3.488 5.208 5.379 8.854 4.433 5.758-1.502 11.713-2.263 17.699-2.263 38.567 0 69.945 31.377 69.945 69.944-.5 4.237 1.57 8.102 5.898 9.077 32.004 6.849 55.233 35.608 55.233 68.382 0 4.151 3.365 7.515 7.515 7.515s7.515-3.364 7.515-7.515c-.001-19.56-6.812-38.655-19.179-53.765z"/><path d="m482.963 230.684c-3.837-1.582-8.229.247-9.812 4.083-8.793 21.327-27.479 36.935-49.986 41.752-4.332.978-6.397 4.839-5.898 9.077 0 38.568-31.377 69.944-69.945 69.944-8.525 0-16.877-1.53-24.823-4.549-3.236-1.227-6.893-.088-8.858 2.763-13.081 18.996-34.629 30.337-57.642 30.337s-44.561-11.34-57.642-30.337c-1.964-2.851-5.624-3.992-8.857-2.763-7.948 3.019-16.299 4.549-24.824 4.549-38.567 0-69.945-31.377-69.945-69.944.5-4.237-1.57-8.102-5.898-9.077-32.004-6.849-55.234-35.608-55.234-68.382s23.229-61.532 55.234-68.382c4.213-.849 6.467-4.99 5.898-9.077 0-16.94 6.134-33.285 17.271-46.02 2.732-3.124 2.414-7.872-.71-10.604-3.124-2.733-7.871-2.416-10.604.709-12.625 14.437-19.958 32.688-20.886 51.781-16.39 4.776-31.155 14.509-42.054 27.827-12.367 15.112-19.178 34.206-19.178 53.766s6.811 38.655 19.178 53.766c10.899 13.317 25.665 23.05 42.053 27.826 2.165 44.941 39.407 80.84 84.875 80.84 8.428 0 16.719-1.232 24.72-3.668 8.571 10.811 19.537 19.252 31.854 24.778-6.547 48.492-21.157 77.731-32.481 93.872-7.831 10.959.277 26.563 13.744 26.447h106.972c13.471.115 21.572-15.493 13.744-26.446-7.427-10.587-13.909-23.439-19.265-38.201-1.415-3.901-5.726-5.915-9.628-4.5-3.901 1.416-5.916 5.726-4.5 9.627 5.808 16.004 12.903 30.035 21.089 41.704.79 1.373.136 2.643-1.44 2.786h-106.971c-1.576-.143-2.231-1.413-1.44-2.786 12.05-17.176 27.502-47.792 34.657-97.527 6.563 1.615 13.361 2.464 20.27 2.464 6.908 0 13.704-.849 20.266-2.463 1.301 9.02 2.926 17.769 4.855 26.106.804 3.474 3.895 5.823 7.314 5.823.561 0 1.131-.064 1.701-.196 4.043-.935 6.563-4.972 5.628-9.015-2.034-8.794-3.712-18.09-5.013-27.697 12.316-5.526 23.281-13.967 31.852-24.777 8.002 2.436 16.292 3.668 24.72 3.668 45.468 0 82.709-35.895 84.875-80.836 24.7-7.164 44.945-25.216 54.849-49.24 1.581-3.834-.248-8.227-4.085-9.808z"/><path d="m152.61 205.547c-4.15 0-7.515 3.364-7.515 7.515v20.369c-16.952 3.486-29.738 18.523-29.738 36.49 0 20.542 16.711 37.253 37.253 37.253s37.253-16.711 37.253-37.253c0-17.968-12.787-33.005-29.739-36.49v-12.854h88.362v12.854c-16.951 3.486-29.738 18.523-29.738 36.49 0 20.542 16.712 37.253 37.253 37.253s37.253-16.711 37.253-37.253c0-17.968-12.787-33.005-29.738-36.49v-12.854h88.361v12.854c-16.952 3.486-29.739 18.523-29.739 36.49 0 20.542 16.712 37.253 37.253 37.253 20.542 0 37.253-16.711 37.253-37.253 0-17.968-12.786-33.005-29.738-36.49v-20.369c0-4.151-3.365-7.515-7.515-7.515h-95.876v-14.448h41.051c4.15 0 7.515-3.364 7.515-7.515v-19.708c16.952-3.486 29.739-18.523 29.739-36.491 0-20.542-16.712-37.253-37.253-37.253s-37.253 16.711-37.253 37.253c0 17.968 12.787 33.005 29.738 36.491v12.194h-82.102v-12.194c16.951-3.486 29.738-18.523 29.738-36.491 0-20.542-16.712-37.253-37.253-37.253-20.542 0-37.253 16.711-37.253 37.253 0 17.968 12.787 33.006 29.739 36.491v19.708c0 4.151 3.365 7.515 7.515 7.515h41.051v14.448zm22.224 64.373c0 12.254-9.97 22.224-22.224 22.224s-22.224-9.97-22.224-22.224c0-12.253 9.97-22.223 22.224-22.223s22.224 9.97 22.224 22.223zm103.39 0c0 12.254-9.97 22.224-22.224 22.224s-22.223-9.97-22.223-22.224c0-12.253 9.97-22.223 22.223-22.223 12.254 0 22.224 9.97 22.224 22.223zm103.391 0c0 12.254-9.97 22.224-22.224 22.224s-22.224-9.97-22.224-22.224c0-12.253 9.97-22.223 22.224-22.223s22.224 9.97 22.224 22.223zm-99.273-142.536c0-12.254 9.97-22.224 22.223-22.224 12.254 0 22.224 9.97 22.224 22.224s-9.97 22.224-22.224 22.224c-12.253 0-22.223-9.969-22.223-22.224zm-97.131 0c0-12.254 9.97-22.224 22.224-22.224s22.224 9.97 22.224 22.224-9.97 22.224-22.224 22.224c-12.255 0-22.224-9.969-22.224-22.224z"/></g></g></svg>