<svg id="Capa_1" enable-background="new 0 0 512 512" height="512" viewBox="0 0 512 512" width="512" xmlns="http://www.w3.org/2000/svg" xmlns:xlink="http://www.w3.org/1999/xlink"><linearGradient id="SVGID_1_" gradientUnits="userSpaceOnUse" x1="74.981" x2="437.019" y1="74.981" y2="437.019"><stop offset="0" stop-color="#95e0db"/><stop offset="1" stop-color="#70c7c7"/></linearGradient><linearGradient id="SVGID_2_" gradientUnits="userSpaceOnUse" x1="165.334" x2="346.666" y1="345.096" y2="345.096"><stop offset="0" stop-color="#eebda9"/><stop offset="1" stop-color="#cd9280"/></linearGradient><linearGradient id="SVGID_3_" gradientUnits="userSpaceOnUse" x1="156.12" x2="355.88" y1="202.044" y2="202.044"><stop offset=".181" stop-color="#f2ccbd"/><stop offset=".7838" stop-color="#eebda9"/></linearGradient><linearGradient id="SVGID_4_" gradientUnits="userSpaceOnUse" x1="143.276" x2="368.724" y1="128.946" y2="128.946"><stop offset="0" stop-color="#575a65"/><stop offset="1" stop-color="#383c42"/></linearGradient><linearGradient id="lg1"><stop offset="0" stop-color="#7982ed"/><stop offset="1" stop-color="#4d56b2"/></linearGradient><linearGradient id="SVGID_5_" gradientUnits="userSpaceOnUse" x1="99.613" x2="412.387" xlink:href="#lg1" y1="435.149" y2="435.149"/><linearGradient id="SVGID_6_" gradientUnits="userSpaceOnUse" x1="176.996" x2="335.004" y1="382.079" y2="382.079"><stop offset="0" stop-color="#fff"/><stop offset="1" stop-color="#e9ecf4"/></linearGradient><linearGradient id="SVGID_7_" gradientUnits="userSpaceOnUse" x1="127.326" x2="448.438" xlink:href="#lg1" y1="368.171" y2="368.171"/><g><g><g><g><g><g><g><path d="m99.613 458.695c-60.592-46.817-99.613-120.199-99.613-202.695 0-141.385 114.615-256 256-256s256 114.615 256 256c0 74.999-32.251 142.464-83.641 189.286z" fill="url(#SVGID_1_)"/></g></g></g></g></g></g><g><path d="m256 417.767c39.384 0 73.569-22.256 90.666-54.877l-33.309-7.323c-8.762-1.926-15.004-9.69-15.004-18.661v-64.481h-84.706v64.481c0 8.971-6.242 16.735-15.004 18.661l-33.309 7.323c17.097 32.621 51.282 54.877 90.666 54.877z" fill="url(#SVGID_2_)"/></g><g><g><circle cx="165.079" cy="213.171" fill="#eebda9" r="35.022"/></g><g><circle cx="346.921" cy="213.171" fill="#e5a48e" r="35.022"/></g></g><g><path d="m259.997 325.138h-7.994c-52.955 0-95.883-42.928-95.883-95.883v-54.423c0-52.955 42.928-95.883 95.883-95.883h7.994c52.955 0 95.883 42.928 95.883 95.883v54.423c0 52.955-42.928 95.883-95.883 95.883z" fill="url(#SVGID_3_)"/></g><g><path d="m221.466 148.885s65.158 60.981 147.258 64.286v-64.044c0-57.661-50.468-104.405-112.724-104.405-62.256 0-112.724 46.744-112.724 104.405v64.044s37.792-23.248 78.19-64.286z" fill="url(#SVGID_4_)"/></g><g><path d="m256 512c58.889 0 113.134-19.884 156.387-53.305l-4.719-53.368c-1.558-17.616-14.368-32.184-31.641-35.981l-50.25-11.047c-10.931 27.849-38.051 47.566-69.777 47.566s-58.847-19.717-69.777-47.566l-50.25 11.047c-17.273 3.797-30.083 18.365-31.64 35.981l-4.719 53.368c43.252 33.421 97.497 53.305 156.386 53.305z" fill="url(#SVGID_5_)"/></g><g><path d="m256 418.895c-17.159 0-33.656-5.157-47.708-14.915-13.713-9.522-24.175-22.743-30.255-38.233-3.027-7.711.771-16.417 8.482-19.443 7.713-3.027 16.417.771 19.443 8.482 8.132 20.72 27.773 34.108 50.037 34.108s41.904-13.388 50.037-34.108c3.027-7.711 11.731-11.51 19.443-8.482 7.712 3.026 11.509 11.732 8.482 19.443-6.08 15.49-16.542 28.711-30.255 38.233-14.05 9.758-30.547 14.915-47.706 14.915z" fill="url(#SVGID_6_)"/></g><g><path d="m162.91 328.046-62.276-8.785c-19.107-2.695-32.41-20.369-29.715-39.476 2.695-19.107 20.369-32.41 39.476-29.715l62.276 8.785z" fill="#f2ccbd"/></g><g><path d="m362.763 488.743c24.112-11.079 46.206-25.794 65.581-43.444l18.685-87.542c2.988-13.997 1.247-28.694-5.463-41.336-9.834-18.524-28.265-31.926-50.354-34.623l-255.004-34.201-8.882 82.56 241.397 43.388z" fill="url(#SVGID_7_)"/></g><g><path d="m435 265h-45.709c-8.284 0-15-6.716-15-15s6.716-15 15-15h45.709c8.284 0 15 6.716 15 15s-6.716 15-15 15z" fill="#e9ecf4"/></g><g><path d="m404.91 213.937c-7.264 0-13.646-5.286-14.802-12.687-1.278-8.185 4.32-15.857 12.505-17.135l30.071-4.697c8.188-1.278 15.857 4.32 17.136 12.505s-4.32 15.857-12.505 17.135l-30.071 4.697c-.784.123-1.564.182-2.334.182z" fill="#e9ecf4"/></g><g><path d="m108.802 228.486c-.889 0-1.791-.079-2.696-.244l-37.14-6.742c-8.151-1.479-13.559-9.287-12.08-17.438 1.48-8.151 9.287-13.56 17.438-12.08l37.14 6.742c8.151 1.479 13.559 9.287 12.08 17.438-1.316 7.246-7.63 12.324-14.742 12.324z" fill="#fff"/></g><g><path d="m119.348 184.602c-3.424 0-6.865-1.166-9.683-3.55l-24.253-20.525c-6.324-5.352-7.112-14.816-1.76-21.14 5.352-6.325 14.817-7.112 21.14-1.76l24.253 20.525c6.324 5.352 7.112 14.816 1.76 21.14-2.967 3.505-7.199 5.31-11.457 5.31z" fill="#fff"/></g></g></svg>