<svg height="512pt" viewBox="0 -64 512 512" width="512pt" xmlns="http://www.w3.org/2000/svg"><path d="m380 3.207031c58.691406 13.195313 102.542969 65.621094 102.542969 128.300781 0 73.632813-51.007813 125.066407-95.445313 161.644532-28.765625 23.683594-56.621094 41.839844-59.703125 43.832031l-71.394531 46.152344-71.394531-46.152344c-3.082031-1.996094-30.9375-20.148437-59.703125-43.832031-44.4375-36.582032-95.445313-88.011719-95.445313-161.644532 0-72.628906 58.878907-131.507812 131.507813-131.507812 37.367187 0 71.09375 15.585938 95.035156 40.609375 23.933594-25.015625 57.644531-40.5976562 95-40.609375 0 0 17.140625-.0625 29 3.207031zm0 0" fill="#ef2d57"/><g fill="#d4284d"><path d="m388.6875 5.480469c15.070312 80.496093 25.277344 274.257812-207.882812 329.003906 1.941406 1.289063 3.261718 2.148437 3.800781 2.5l71.394531 46.152344 71.394531-46.152344c3.082031-1.996094 30.9375-20.148437 59.703125-43.832031 44.4375-36.582032 95.445313-88.011719 95.445313-161.644532 0-59.542968-39.578125-109.832031-93.855469-126.027343zm0 0"/><path d="m428.644531 221.96875-25.929687-52.125c-1.359375-2.730469-4.238282-4.371094-7.273438-4.140625-3.042968.230469-5.640625 2.273437-6.578125 5.175781l-23.929687 74.1875-29.507813-67.316406c-1.664062-3.792969-6.085937-5.519531-9.878906-3.855469-3.792969 1.660157-5.523437 6.085938-3.859375 9.878907l37.445312 85.421874c1.199219 2.734376 3.902344 4.488282 6.867188 4.488282.125 0 .253906-.003906.378906-.011719 3.113282-.15625 5.804688-2.222656 6.761719-5.1875l24.347656-75.476563 19.796875 39.800782c1.269532 2.546875 3.871094 4.160156 6.71875 4.160156h19.617188c3.753906-4.835938 7.339844-9.832031 10.710937-15zm0 0"/><path d="m308.867188 117.171875c-1.207032-2.761719-3.941407-4.527344-6.972657-4.488281-3.011719.042968-5.710937 1.886718-6.84375 4.679687l-35.324219 87.042969-29.679687-49.890625c-1.523437-2.5625-4.421875-3.976563-7.378906-3.609375-2.957031.371094-5.414063 2.460938-6.257813 5.316406l-29.917968 101.21875-38.394532-112.675781c-.980468-2.878906-3.601562-4.878906-6.632812-5.066406s-5.882813 1.472656-7.210938 4.207031l-37.945312 78.0625h-38.640625c3.371093 5.167969 6.960937 10.164062 10.714843 15h32.617188c2.871094 0 5.488281-1.640625 6.746094-4.222656l32.03125-65.894532 40.125 117.75c1.035156 3.042969 3.894531 5.082032 7.097656 5.082032h.152344c3.269531-.066406 6.113281-2.242188 7.039062-5.375l31.738282-107.375 28.625 48.113281c1.457031 2.449219 4.171874 3.859375 7.011718 3.644531s5.3125-2.019531 6.382813-4.65625l34.316406-84.5625 10.25 23.378906c1.660156 3.792969 6.082031 5.519532 9.878906 3.855469 3.792969-1.660156 5.519531-6.085937 3.859375-9.878906zm0 0"/></g><path d="m365.996094 254.675781c-2.964844 0-5.664063-1.75-6.863282-4.488281l-37.445312-85.421875c-1.664062-3.792969.0625-8.214844 3.855469-9.878906 3.796875-1.660157 8.21875.0625 9.882812 3.855469l29.503907 67.316406 23.933593-74.1875c.933594-2.898438 3.535157-4.945313 6.574219-5.175782 3.039062-.226562 5.917969 1.410157 7.277344 4.140626l25.929687 52.125h75.855469c4.140625 0 7.5 3.359374 7.5 7.5 0 4.140624-3.359375 7.5-7.5 7.5h-80.5c-2.847656 0-5.445312-1.609376-6.714844-4.160157l-19.800781-39.800781-24.347656 75.480469c-.957031 2.964843-3.648438 5.027343-6.757813 5.1875-.128906.003906-.253906.007812-.382812.007812zm0 0" fill="#ffcb05"/><path d="m187 270.675781c-3.203125 0-6.0625-2.039062-7.097656-5.082031l-40.125-117.75-32.03125 65.894531c-1.257813 2.582031-3.875 4.222657-6.746094 4.222657h-93.5c-4.140625 0-7.5-3.359376-7.5-7.5 0-4.144532 3.359375-7.5 7.5-7.5h88.808594l37.945312-78.0625c1.332032-2.734376 4.183594-4.390626 7.210938-4.207032 3.035156.1875 5.652344 2.1875 6.632812 5.066406l38.394532 112.675782 29.917968-101.21875c.84375-2.859375 3.300782-4.945313 6.261719-5.316406 2.953125-.371094 5.851563 1.046874 7.375 3.609374l29.679687 49.886719 35.324219-87.039062c1.132813-2.792969 3.832031-4.636719 6.847657-4.679688 3.027343-.0625 5.761718 1.726563 6.972656 4.488281l17.382812 39.652344c1.660156 3.796875-.066406 8.21875-3.859375 9.882813-3.792969 1.660156-8.214843-.066407-9.878906-3.859375l-10.25-23.375-34.316406 84.558594c-1.070313 2.640624-3.542969 4.445312-6.382813 4.660156-2.839844.21875-5.554687-1.199219-7.011718-3.644532l-28.625-48.117187-31.734376 107.378906c-.925781 3.132813-3.773437 5.304688-7.039062 5.371094-.054688.003906-.105469.003906-.15625.003906zm0 0" fill="#ffcb05"/></svg>