<svg height="512" viewBox="0 0 512 512" width="512" xmlns="http://www.w3.org/2000/svg"><g id="Filled_outline" data-name="Filled outline"><path d="m408 496v-173.309a40 40 0 0 0 -34.343-39.6l-77.657-11.091v-48h-80v48l-80.381 17.224a40 40 0 0 0 -31.619 39.112v167.664" fill="#fec9a3"/><path d="m296 251.859v-27.859h-80v27.859a71.963 71.963 0 0 0 80 0z" fill="#feb784"/><path d="m408 322.69v173.31h-304v-167.66a40.012 40.012 0 0 1 31.62-39.12l72.38-15.51v6.29a48 48 0 0 0 96 0v-6.86l69.66 9.95a39.978 39.978 0 0 1 34.34 39.6z" fill="#348fd9"/><path d="m408 322.69v173.31h-278.25c79.74-36.37 183.9-100.03 262.13-205.41a40.025 40.025 0 0 1 16.12 32.1z" fill="#3086cd"/><path d="m328 109.59v32.83a258.2 258.2 0 0 1 -5.02 50.67 68.291 68.291 0 0 1 -66.98 54.91q-3.24 0-6.41-.3a68.315 68.315 0 0 1 -60.57-54.61q-2.505-12.525-3.76-25.21t-1.26-25.46v-32.83a72.018 72.018 0 0 1 61.59-71.25 72.885 72.885 0 0 1 10.41-.75 72.006 72.006 0 0 1 72 72z" fill="#fec9a3"/><path d="m328 109.59v32.83a258.2 258.2 0 0 1 -5.02 50.67 68.291 68.291 0 0 1 -66.98 54.91q-3.24 0-6.41-.3a72 72 0 0 0 38.41-63.7v-80a72.107 72.107 0 0 0 -42.41-65.66 72.885 72.885 0 0 1 10.41-.75 72.006 72.006 0 0 1 72 72z" fill="#fec093"/><path d="m208 64h88v16h-88z" fill="#fec093"/><path d="m184 120h-8a24 24 0 0 0 0 48h9.273q-1.268-12.746-1.273-25.584z" fill="#feb784"/><path d="m336 120h-8v22.416q0 12.824-1.273 25.584h9.273a24 24 0 0 0 0-48z" fill="#feb784"/><g fill="#95573a"><path d="m184 120v-32c0-26.51 17.909-48 40-48l-1.408 5.068c-7.842 28.232-21.055 53.888-38.592 74.932z"/><path d="m328 120v-55.015a25.754 25.754 0 0 0 -32-24.985v24s14.463 34.956 32 56z"/><path d="m296 64h-112a40 40 0 0 1 40-40h33.373a54.626 54.626 0 0 1 38.627 16z"/></g><path d="m200 344a24.006 24.006 0 0 1 -24 24h-112a23.946 23.946 0 0 1 -6.24-47.08 23.923 23.923 0 0 1 38.41-26.56 23.878 23.878 0 0 1 47.66 0 23.921 23.921 0 0 1 38.41 26.56 23.949 23.949 0 0 1 17.76 23.08z" fill="#ffb531"/><path d="m200 344a24.006 24.006 0 0 1 -24 24h-98.9c35-14.66 71.61-37.91 97.86-74.76a23.84 23.84 0 0 1 7.28 27.68 23.949 23.949 0 0 1 17.76 23.08z" fill="#ffa912"/><path d="m192 361.51-16 134.49h-112l-.72-6.07-15.28-128.42a22.621 22.621 0 0 1 32 0l8.57-5.71a22.627 22.627 0 0 1 28.55 2.83l2.88 2.88 2.88-2.88a22.627 22.627 0 0 1 28.55-2.83l8.57 5.71a22.625 22.625 0 0 1 32 0z" fill="#e0e0de"/><path d="m192 361.51-16 134.49h-112l-.72-6.07c38.34-30.88 84.47-75.08 123.19-132.48a22.373 22.373 0 0 1 5.53 4.06z" fill="#d6d6d4"/><path d="m72 464h-48v-80h48a16 16 0 0 1 16 16v48a16 16 0 0 1 -16 16z" fill="#fec9a3"/><path d="m72 384h-24.014a16 16 0 0 1 16 16v48a16 16 0 0 1 -16 16h24.014a16 16 0 0 0 16-16v-48a16 16 0 0 0 -16-16z" fill="#fec093"/><path d="m472 336-1.37 16-2.2 25.63-10.14 118.37h-68.58l-3.24-37.85-9.1-106.15-1.37-16z" fill="#f35244"/><path d="m360 304h128v32h-128z" fill="#e0e0de"/><path d="m456 304h32v32h-32z" fill="#d6d6d4"/><path d="m408 208h32v96h-32z" fill="#f35244"/><path d="m468.43 377.63-10.14 118.37h-68.58l-3.24-37.85a533.411 533.411 0 0 0 81.96-80.52z" fill="#ea4a3b"/><path d="m472 336-1.37 16h-93.26l-1.37-16z" fill="#ea4a3b"/><path d="m440 384h48v80h-48a16 16 0 0 1 -16-16v-48a16 16 0 0 1 16-16z" fill="#fec9a3"/><path d="m456 384h32v80h-32z" fill="#fec093"/><path d="m488 336a8 8 0 0 0 8-8v-32a8 8 0 0 0 -8-8h-40v-88a8 8 0 0 0 -8-8h-32a8 8 0 0 0 -8 8v86.924a48 48 0 0 0 -25.212-11.75l-70.788-10.112v-26.03c.132-.107.264-.21.4-.321a76.454 76.454 0 0 0 26.4-44.011c1.3-6.433 2.309-12.614 3.075-18.7h2.125a32 32 0 0 0 0-64v-47.016a33.743 33.743 0 0 0 -37.469-33.541 62.149 62.149 0 0 0 -41.158-15.443h-33.373a48.054 48.054 0 0 0 -48 48 7.974 7.974 0 0 0 2.569 5.863 64.872 64.872 0 0 0 -2.569 18.137v24a32 32 0 0 0 0 64h2.124c.769 6.108 1.777 12.282 3.076 18.71a76.026 76.026 0 0 0 26.8 44.28v26.515l-37.97 8.109a31.691 31.691 0 0 0 -21.342.491 31.781 31.781 0 0 0 -57.376 0 31.458 31.458 0 0 0 -11.312-2.105 32.036 32.036 0 0 0 -32 32 31.261 31.261 0 0 0 .288 4.236 31.882 31.882 0 0 0 -16.288 27.764 31.486 31.486 0 0 0 8.463 21.611l1.2 10.389h-17.663a8 8 0 0 0 -8 8v80a8 8 0 0 0 8 8h29.063l2.994 24.953a8 8 0 0 0 7.943 7.047h112a8 8 0 0 0 7.944-7.058l15.584-131.321a31.492 31.492 0 0 0 8.472-21.621 31.882 31.882 0 0 0 -16.288-27.764 31.261 31.261 0 0 0 .288-4.236 31.97 31.97 0 0 0 -5.266-17.6l13.388-2.862a56.061 56.061 0 0 0 55.878 52.462 56.062 56.062 0 0 0 55.94-53.641l44.7 6.386a8 8 0 0 0 -4.64 7.255v32a8 8 0 0 0 8 8h8.655l7.475 87.426c-8.289-24.458-15.139-44.878-16.232-48.7a7.987 7.987 0 0 0 -2.242-4.386l-9.9-1.136a7.5 7.5 0 0 0 -3.695 6.796h-.061v120h16v-70.325q1.465 4.325 3.058 9.018c9.385 27.65 18.958 55.619 19.053 55.9h.007a8 8 0 0 0 7.562 5.407h68.64a8 8 0 0 0 7.971-7.322l2.1-24.678h19.609a8 8 0 0 0 8-8v-80a8 8 0 0 0 -8-8h-11.371l2.72-32zm-72-128h16v80h-16zm-64-64a16.019 16.019 0 0 1 -16 16h-.594c.382-5.744.594-32 .594-32a16.019 16.019 0 0 1 16 16zm-32-79.016v29.151a315.751 315.751 0 0 1 -16-31.768v-15.06a17.78 17.78 0 0 1 16 17.677zm-32-21.518v12.534h-12.155l-19.2-24h.728a46.284 46.284 0 0 1 30.627 11.466zm-51.845-11.466 19.2 24h-20.041l-22.114-22.119a31.853 31.853 0 0 1 10.8-1.881zm-44.155 56a48.211 48.211 0 0 1 2.678-16h9.7a186.691 186.691 0 0 1 -12.378 23.306zm7.79-44.9 12.9 12.9h-19.678a31.944 31.944 0 0 1 6.778-12.9zm-39.79 100.9a16.019 16.019 0 0 1 16-16s.212 26.27.593 32h-.593a16.019 16.019 0 0 1 -16-16zm36.882 47.536a232.128 232.128 0 0 1 -3.645-24.361 241.2 241.2 0 0 1 -1.237-24.775v-19.548c2.229-2.769 4.372-5.6 6.477-8.556a200.615 200.615 0 0 0 23.283-42.296h68.99c4.537 10.166 15.768 33.778 29.25 50.832v19.568a241.669 241.669 0 0 1 -1.244 24.848 231.879 231.879 0 0 1 -3.641 24.3 59.6 59.6 0 0 1 -20.9 34.818l-.1.084c-.8.674-1.75 1.355-2.8 2.106a60.295 60.295 0 0 1 -94.429-37.023zm-140.382 165.433a14.526 14.526 0 0 1 15.7.444l.638 10.608c-.278-.009-.554-.021-.834-.021h-14.235zm87.962 123.031h-16.462v-123.167l.537-.536a14.645 14.645 0 0 1 18.48-1.791l4.723 3.134zm-32.462 0h-16.454l-1.752-29.967a23.85 23.85 0 0 0 2.206-10.033v-48a23.912 23.912 0 0 0 -6.694-16.6l-1.067-17.743 4.733-3.14a14.47 14.47 0 0 1 18.491 1.783l.537.536zm-80-96h40a8.009 8.009 0 0 1 8 8v48a8.009 8.009 0 0 1 -8 8h-40zm37.177 80h2.823a23.941 23.941 0 0 0 6.53-.91l.989 16.91h-8.419zm99.716 16h-8.4l7.291-122.57a14.525 14.525 0 0 1 15.712-.469zm23.107-144a15.928 15.928 0 0 1 -1.419 6.6 30.461 30.461 0 0 0 -30.973 1.054l-3.717-2.466a30.694 30.694 0 0 0 -35.891 1.336 30.431 30.431 0 0 0 -35.862-1.35l-3.745 2.484a30.461 30.461 0 0 0 -30.974-1.058 15.881 15.881 0 0 1 10.394-21.913 8 8 0 0 0 5.375-10.7 15.9 15.9 0 0 1 25.541-17.715 8 8 0 0 0 13.411-5.311 15.887 15.887 0 0 1 31.72 0 8 8 0 0 0 13.411 5.311 15.8 15.8 0 0 1 10.729-4.272 14.734 14.734 0 0 1 6.11 1.23q.307.137.632.247a15.942 15.942 0 0 1 8.07 20.512 8 8 0 0 0 5.375 10.7 15.878 15.878 0 0 1 11.813 15.311zm64-16a40.065 40.065 0 0 1 -40-39.827l1.64-.344a8 8 0 0 0 6.36-7.829v-23.033a76.331 76.331 0 0 0 64 0v23.033a8 8 0 0 0 6.869 7.92l1.129.161a40.044 40.044 0 0 1 -39.998 39.919zm112-16h112v16h-112zm112 144h-40a8.009 8.009 0 0 1 -8-8v-48a8.009 8.009 0 0 1 8-8h40zm-19.429-80h-20.571a24.027 24.027 0 0 0 -24 24v48a24.027 24.027 0 0 0 24 24h12.331l-1.36 16h-53.946l-12.312-144h78.578z"/><path d="m232 129.589a12 12 0 1 0 -12 12 12.013 12.013 0 0 0 12-12z"/><path d="m292 141.589a12 12 0 1 0 -12-12 12.013 12.013 0 0 0 12 12z"/><path d="m292.031 182.91-8.062-13.82c-7.529 4.391-18.128 6.91-29.078 6.91h-14.891v16h14.891c13.901 0 27.091-3.229 37.14-9.09z"/></g></svg>