<?xml version="1.0" encoding="iso-8859-1"?>
<!-- Generator: Adobe Illustrator 19.0.0, SVG Export Plug-In . SVG Version: 6.00 Build 0)  -->
<svg version="1.1" id="Capa_1" xmlns="http://www.w3.org/2000/svg" xmlns:xlink="http://www.w3.org/1999/xlink" x="0px" y="0px"
	 viewBox="0 0 491.52 491.52" style="enable-background:new 0 0 491.52 491.52;" xml:space="preserve">
<circle style="fill:#45B39C;" cx="245.76" cy="245.76" r="245.76"/>
<path style="opacity:0.1;enable-background:new    ;" d="M274.952,118.935l-0.033-0.034l0,0.003
	c-10.421-8.707-23.83-13.958-38.477-13.958c-26.214,0-46.49,22.016-48.486,24.73c-24.781,30.464-39.987,71.27-39.987,116.172
	c0,48.486,17.715,92.211,46.029,123.29c0,0,1.624,1.659,4.511,3.934l110.26,110.259c80.261-21.231,144.377-82.048,170.285-160.296
	L282.51,126.494C280.22,123.755,277.69,121.226,274.952,118.935z"/>
<g>
	<path style="fill:#E56353;" d="M343.539,386.557h-20.065v-77.909c0-14.076-11.457-25.532-25.539-25.532h-58.517V263.05h58.517
		c25.146,0,45.604,20.457,45.604,45.598V386.557z"/>
	<rect x="239.416" y="213.166" style="fill:#E56353;" width="101.775" height="20.065"/>
</g>
<path id="SVGCleanerId_0" style="fill:#FCD462;" d="M147.981,245.854c0-44.924,15.219-85.698,39.972-116.17
	c1.986-2.722,22.287-24.724,48.484-24.724c33.165,0,60.051,26.886,60.051,60.052c0,28.153-19.4,51.714-45.543,58.213
	c10.256,6.172,17.138,17.376,17.138,30.217c0,6.925-2.023,13.364-5.47,18.813c20.262,9.648,34.302,30.252,34.302,54.189
	c0,33.164-26.932,58.323-60.052,60.052c-24.778,1.293-42.848-17.38-42.848-17.38C165.692,338.037,147.981,294.349,147.981,245.854z"
	/>
<g>
	<path id="SVGCleanerId_0_1_" style="fill:#FCD462;" d="M147.981,245.854c0-44.924,15.219-85.698,39.972-116.17
		c1.986-2.722,22.287-24.724,48.484-24.724c33.165,0,60.051,26.886,60.051,60.052c0,28.153-19.4,51.714-45.543,58.213
		c10.256,6.172,17.138,17.376,17.138,30.217c0,6.925-2.023,13.364-5.47,18.813c20.262,9.648,34.302,30.252,34.302,54.189
		c0,33.164-26.932,58.323-60.052,60.052c-24.778,1.293-42.848-17.38-42.848-17.38C165.692,338.037,147.981,294.349,147.981,245.854z
		"/>
</g>
<path style="fill:#F6C358;" d="M274.782,326.444c0-18.754-10.99-36.102-27.993-44.196l-11.265-5.36l6.667-10.547
	c2.458-3.89,3.761-8.347,3.761-12.897c0-8.547-4.404-16.301-11.778-20.736l-22.892-13.772l25.929-6.446
	c21.871-5.441,37.145-24.962,37.145-47.481c0-24.984-18.813-45.621-43.011-48.58c1.678-0.237,3.373-0.402,5.096-0.402
	c27.009,0,48.983,21.974,48.983,48.983c0,22.519-15.274,42.04-37.145,47.481l-25.928,6.446l22.892,13.772
	c7.375,4.435,11.778,12.189,11.778,20.736c0,4.55-1.302,9.007-3.76,12.897l-6.667,10.547l11.265,5.36
	c17.003,8.094,27.993,25.442,27.993,44.196c0,26.463-21.309,47.529-49.566,49.004c-0.632,0.033-1.886,0.049-1.886,0.049
	c-1.827,0-3.597-0.17-5.329-0.42C255.38,371.973,274.782,351.685,274.782,326.444z"/>
<g>
</g>
<g>
</g>
<g>
</g>
<g>
</g>
<g>
</g>
<g>
</g>
<g>
</g>
<g>
</g>
<g>
</g>
<g>
</g>
<g>
</g>
<g>
</g>
<g>
</g>
<g>
</g>
<g>
</g>
</svg>
