<svg id="_x33_0" enable-background="new 0 0 64 64" height="512" viewBox="0 0 64 64" width="512" xmlns="http://www.w3.org/2000/svg" xmlns:xlink="http://www.w3.org/1999/xlink"><linearGradient id="SVGID_1_" gradientUnits="userSpaceOnUse" x1="31.898" x2="31.898" y1="63" y2="1"><stop offset="0" stop-color="#9f2fff"/><stop offset="1" stop-color="#0bb1d3"/></linearGradient><path d="m33.879 1h-.656c-5.874 0-11.43 2.098-15.788 5.856l1.952-5.856h-15.217l-3.375 18h6.044l-2.541 16.94c-.115.769.109 1.546.616 2.134.506.589 1.242.926 2.018.926 1.039 0 1.99-.61 2.422-1.554l1.234-2.693c.831 2.228 1.967 4.321 3.408 6.242l3.604 4.805c2.192 2.923 3.4 6.546 3.4 10.2v7h20v-2.395c0-1.494.329-2.975.924-4.344l1.451.363c.997.25 2.023.376 3.05.376 6.934 0 12.575-5.642 12.575-12.575v-4.807l4-2v-7.611c0-7.753-3.022-15.037-8.51-20.511-5.493-5.478-12.813-8.496-20.611-8.496zm-26.343 35.613c-.108.235-.345.387-.604.387-.265 0-.429-.145-.503-.23s-.193-.27-.154-.532l2.886-19.238h-5.956l2.625-14h10.783l-4 12h4.829zm53.464-.231-4 2v6.043c0 5.831-4.744 10.575-10.575 10.575-.863 0-1.726-.106-2.564-.315l-10.618-2.655-.485 1.939 7.199 1.8c-.62 1.534-.957 3.18-.957 4.836v.395h-10v-10c0-1.654 1.346-3 3-3h8c2.757 0 5-2.243 5-5s-2.243-5-5-5h-15c-1.103 0-2-.897-2-2s.897-2 2-2h13c1.654 0 3-1.346 3-3 0-.352-.072-.686-.184-1h9.184c2.757 0 5-2.243 5-5s-2.243-5-5-5c-.028 0-.054.008-.082.008.043-.334.082-.668.082-1.008 0-4.411-3.589-8-8-8-1.114 0-2.175.23-3.14.644-1.573-2.846-4.544-4.644-7.86-4.644-4.962 0-9 4.037-9 9 0 .698.089 1.383.245 2.053-2.953.373-5.245 2.895-5.245 5.947 0 3.309 2.691 6 6 6h15c.551 0 1 .448 1 1s-.449 1-1 1h-13c-2.206 0-4 1.794-4 4s1.794 4 4 4h15c1.654 0 3 1.346 3 3s-1.346 3-3 3h-8c-2.757 0-5 2.243-5 5v10h-4v-5c0-4.085-1.35-8.133-3.8-11.399l-3.604-4.805c-1.747-2.33-3.006-4.936-3.772-7.739l8.735-19.057h-5.171l.6-1.8c4.244-5.211 10.515-8.2 17.236-8.2h.656c7.264 0 14.083 2.81 19.198 7.912 5.109 5.096 7.922 11.877 7.922 19.095zm-38-16.382c2.206 0 4 1.794 4 4h2c0-2.846-1.993-5.23-4.656-5.843-.225-.694-.344-1.416-.344-2.157 0-3.859 3.14-7 7-7 2.597 0 4.922 1.419 6.138 3.662-1.686 1.296-2.845 3.242-3.088 5.465-1.746.429-3.05 1.996-3.05 3.873h2c0-1.103.897-2 2-2s2 .897 2 2h2c0-1.835-1.248-3.368-2.935-3.838.41-2.912 2.911-5.162 5.935-5.162 3.309 0 6 2.691 6 6 0 .526-.086 1.041-.22 1.543-1.64.821-2.78 2.501-2.78 4.457h2c0-1.654 1.346-3 3-3s3 1.346 3 3-1.346 3-3 3h-27c-2.206 0-4-1.794-4-4s1.794-4 4-4z" fill="url(#SVGID_1_)"/></svg>